HIERARCHY
ROOT ui
{
	 OFFSET 0 0 0
	 CHANNELS 3 XPosition YPosition Z Position
	 EndSite
	 {
	 OFFSET 0 -1 0
	 }
}
ROOT li
{
	 OFFSET 0 0 0
	 CHANNELS 3 XPosition YPosition Z Position
	 EndSite
	 {
	 OFFSET 0 -1 0
	 }
}
ROOT ul
{
	 OFFSET 0 0 0
	 CHANNELS 3 XPosition YPosition Z Position
	 EndSite
	 {
	 OFFSET 0 -1 0
	 }
}
ROOT ll
{
	 OFFSET 0 0 0
	 CHANNELS 3 XPosition YPosition Z Position
	 EndSite
	 {
	 OFFSET 0 -1 0
	 }
}
ROOT tt
{
	 OFFSET 0 0 0
	 CHANNELS 3 XPosition YPosition Z Position
	 EndSite
	 {
	 OFFSET 0 -1 0
	 }
}
ROOT tb
{
	 OFFSET 0 0 0
	 CHANNELS 3 XPosition YPosition Z Position
	 EndSite
	 {
	 OFFSET 0 -1 0
	 }
}
ROOT td
{
	 OFFSET 0 0 0
	 CHANNELS 3 XPosition YPosition Z Position
	 EndSite
	 {
	 OFFSET 0 -1 0
	 }
}
ROOT v
{
	 OFFSET 0 0 0
	 CHANNELS 3 XPosition YPosition Z Position
	 EndSite
	 {
	 OFFSET 0 -1 0
	 }
}
ROOT bn
{
	 OFFSET 0 0 0
	 CHANNELS 3 XPosition YPosition Z Position
	 EndSite
	 {
	 OFFSET 0 -1 0
	 }
}
MOTION
Frames: 24
Frame Time: 0.002
0.001135243058204651	-0.0016956739425659179	0		0.3971414489746094	-2.324562255859375	0		-1.0662119140625	-0.01851846694946289	0		-0.8988030395507812	-2.2411240234375	0		1.3616685791015626	-0.4660910034179688	0		2.96025830078125	0.0562280387878418	0		4.4066904296875	0.14666725158691407	0		5.510052734375	0.09397083282470703	0		-0.22328874206542967	5.94709765625	0		
-0.08515541076660156	0.0036076691150665283	0		0.41722100830078124	-2.32390478515625	0		-1.062617431640625	-0.021252288818359374	0		-0.8218678588867188	-2.25196923828125	0		1.3651376953125	-0.4704258728027344	0		2.923687255859375	0.040077320098876955	0		4.412296875	0.14054953002929688	0		5.508748046875	0.09468045806884766	0		-0.2161449737548828	5.94912548828125	0		
-0.07761405181884766	0.0035563020706176757	0		0.42217263793945314	-2.327044189453125	0		-1.0550819091796875	-0.02107443618774414	0		-0.8518073120117188	-2.248303955078125	0		1.3754351806640626	-0.47986044311523435	0		2.951308349609375	0.04402576446533203	0		4.4239580078125	0.145384033203125	0		5.516310546875	0.09331729888916016	0		-0.0890456771850586	5.9593681640625	0		
-0.06040395355224609	-0.005658124923706055	0		0.43888504028320313	-2.335368408203125	0		-1.05366650390625	-0.015836663246154785	0		-0.8740732421875	-2.25576611328125	0		1.371854736328125	-0.4680834045410156	0		2.95946875	0.030279895782470704	0		4.43212548828125	0.13031437683105468	0		5.518556640625	0.08409626007080079	0		-0.19855615234375	5.94906640625	0		
-0.06319570541381836	0.003412482976913452	0		0.3867583923339844	-2.31665966796875	0		-1.1146654052734375	-0.019683826446533204	0		-0.863387451171875	-2.250740478515625	0		1.39575341796875	-0.47371267700195313	0		2.96085009765625	0.049670879364013674	0		4.43231591796875	0.1354207763671875	0		5.520767578125	0.09094990539550782	0		-0.19026687622070312	5.94901513671875	0		
-0.04934941864013672	0.010218769073486329	0		0.44800759887695313	-2.32067236328125	0		-1.02989306640625	-0.017765920639038087	0		-0.8649192504882812	-2.240553466796875	0		1.4024031982421874	-0.4740739440917969	0		2.981459228515625	0.03980056381225586	0		4.4452021484375	0.1423930358886719	0		5.5323701171875	0.07973397827148437	0		-0.18240382385253906	5.948953125	0		
-0.040235031127929685	-0.005917913913726806	0		0.4239393005371094	-2.3223857421875	0		-1.033503173828125	-0.015533659934997559	0		-0.7891095581054688	-2.25158740234375	0		1.3997139892578125	-0.4722782287597656	0		2.99893408203125	0.046012554168701175	0		4.451587890625	0.1415228729248047	0		5.54389892578125	0.08859696197509766	0		-0.042672779083251955	5.9698369140625	0		
-0.04414434051513672	0.0031418499946594238	0		0.4534417419433594	-2.327929443359375	0		-1.0275560302734374	-0.015472752571105957	0		-0.857427490234375	-2.24540771484375	0		1.40068359375	-0.4665232238769531	0		2.988892822265625	0.045688404083251956	0		4.4575595703125	0.14071946716308595	0		5.53986376953125	0.08777790832519532	0		-0.16909481811523439	5.9508251953125	0		
-0.03862713623046875	0.003046333074569702	0		0.43267666625976564	-2.324685791015625	0		-1.0161211547851563	-0.020521942138671874	0		-0.7803508911132813	-2.253523193359375	0		1.4079913330078124	-0.4758555297851563	0		2.99033740234375	0.04022351455688476	0		4.46309619140625	0.13998103332519532	0		5.5553916015625	0.08672702026367188	0		-0.17693173217773436	5.93797021484375	0		
-0.02369867515563965	-0.006207227230072021	0		0.4773487243652344	-2.33147802734375	0		-1.0019408569335937	-0.013635485649108887	0		-0.8226267700195312	-2.256774169921875	0		1.4250169677734374	-0.4753288269042969	0		2.985114013671875	0.020898778915405272	0		4.462060546875	0.1314011993408203	0		5.546333984375	0.07713372802734375	0		-0.223102294921875	5.93772021484375	0		
-0.01776894187927246	0.012678858757019042	0		0.47591348266601563	-2.318537109375	0		-0.9973165283203125	-0.013617480278015136	0		-0.765093017578125	-2.246628173828125	0		1.4295877685546876	-0.47559228515625	0		3.024218994140625	0.04990538024902344	0		4.47081298828125	0.13772053527832032	0		5.56922314453125	0.09210167694091796	0		-0.14863632202148438	5.9465400390625	0		
-0.02474405860900879	0.002764103889465332	0		0.47374560546875	-2.325583740234375	0		-1.0081647338867188	-0.015367650985717773	0		-0.83709912109375	-2.24341845703125	0		1.4198531494140625	-0.46761029052734376	0		2.9882353515625	0.03914487838745117	0		4.47702685546875	0.13813140869140625	0		5.5593046875	0.08465846252441406	0		-0.14580667114257811	5.9484921875	0		
-0.011140265464782716	-0.0064878687858581545	0		0.47523779296875	-2.32868701171875	0		-1.0044152221679687	-0.015369595527648926	0		-0.7616741333007813	-2.251603515625	0		1.4174488525390625	-0.4747335205078125	0		3.00798779296875	0.038521896362304686	0		4.476693359375	0.13169915771484375	0		5.5679326171875	0.07598255157470703	0		-0.009161981582641601	5.96926708984375	0		
-0.017659799575805664	0.002582969903945923	0		0.45244183349609374	-2.325392333984375	0		-1.069156005859375	-0.01927383041381836	0		-0.8324251098632812	-2.245429931640625	0		1.434612548828125	-0.48316293334960936	0		2.991244873046875	0.0335227165222168	0		4.47313525390625	0.13737223815917968	0		5.56640283203125	0.083537841796875	0		-0.15386671447753905	5.93959326171875	0		
-8.263260126113892E-4	-0.0037359299659729004	0		0.4681554260253906	-2.329725830078125	0		-0.9881851806640625	-0.017572742462158203	0		-0.8177225341796875	-2.250662841796875	0		1.44056298828125	-0.48039825439453127	0		3.02127490234375	0.038791915893554685	0		4.4919443359375	0.12872616577148438	0		5.58902783203125	0.0637560043334961	0		-0.16847561645507814	5.94380615234375	0		
-0.002319921016693115	-0.00676172399520874	0		0.46376699829101564	-2.3187294921875	0		-1.0555391845703126	-0.011462376594543458	0		-0.8231229248046875	-2.240580810546875	0		1.4353563232421875	-0.4644384765625	0		3.000819091796875	0.03791530990600586	0		4.48762255859375	0.1355065155029297	0		5.576015625	0.08962258911132813	0		-0.13248988342285156	5.95018017578125	0		
-0.005921504020690918	0.005243400096893311	0		0.4877513122558594	-2.32620263671875	0		-0.9874801025390625	-0.020595848083496095	0		-0.7491586303710938	-2.24982275390625	0		1.4344715576171876	-0.4685411682128906	0		3.0350166015625	0.03716971969604492	0		4.4918447265625	0.13619216918945312	0		5.58410400390625	0.08219758605957031	0		0.0023220090866088866	5.97091650390625	0		
0.0017489449977874756	-0.006945462226867676	0		0.4615530700683594	-2.32584716796875	0		-0.9915283813476562	-0.015559017181396484	0		-0.8232984619140625	-2.24563818359375	0		1.4332772216796874	-0.4716268310546875	0		3.029854736328125	0.035100963592529295	0		4.4827197265625	0.13614457702636718	0		5.5759765625	0.08210009002685546	0		-0.12798777008056642	5.950005859375	0		
-0.006538662910461426	0.002128293991088867	0		0.48901715087890624	-2.32937548828125	0		-0.984049560546875	-0.02072829818725586	0		-0.8217797241210938	-2.245712158203125	0		1.43483056640625	-0.47174490356445314	0		3.013469970703125	0.038248714447021485	0		4.495283203125	0.13578543090820314	0		5.577541015625	0.0819013442993164	0		0.006052504062652588	5.970734375	0		
-0.0052574009895324705	0.0020410211086273194	0		0.4523482666015625	-2.32483984375	0		-1.0486273193359374	-0.011716870307922364	0		-0.8065706176757812	-2.24902294921875	0		1.4530224609375	-0.4771257019042969	0		3.01261962890625	0.030167789459228517	0		4.4904345703125	0.12775697326660157	0		5.56882421875	0.08192794036865235	0		-0.1571012420654297	5.94236181640625	0		
0.015782390594482422	0.00262711501121521	0		0.5083336791992188	-2.327831787109375	0		-0.9685625	-0.010106149673461915	0		-0.8133782958984375	-2.238975341796875	0		1.4540484619140626	-0.4772089538574219	0		3.06591943359375	0.04622281265258789	0		4.49967431640625	0.14053973388671875	0		5.5946484375	0.06943315124511719	0		-0.1551083984375	5.94026220703125	0		
-0.0034347190856933592	0.0018795050382614136	0		0.4962009887695312	-2.32469140625	0		-0.9868622436523438	-0.015877744674682618	0		-0.74273779296875	-2.25021533203125	0		1.43793408203125	-0.47199502563476564	0		3.013656982421875	0.04304598617553711	0		4.487388671875	0.1357141571044922	0		5.58064501953125	0.08164735412597657	0		-0.12319992065429687	5.94966943359375	0		
-0.0028421831130981444	0.0018064659833908082	0		0.49274893188476565	-2.329689697265625	0		-0.9862694091796875	-0.015966586112976074	0		-0.8180491943359375	-2.24604638671875	0		1.4385341796875	-0.4720448913574219	0		3.0220498046875	0.03089103889465332	0		4.49487939453125	0.12959857177734374	0		5.581236328125	0.08166403961181641	0		-0.12270295715332032	5.9495947265625	0		
0.007421173095703125	-0.007424955844879151	0		0.4491737365722656	-2.332020263671875	0		-0.9799391479492188	-0.021155929565429686	0		-0.7436754150390625	-2.252352294921875	0		1.43895849609375	-0.47207861328125	0		3.0105625	0.037091777801513674	0		4.48838916015625	0.13575180053710936	0		5.57751611328125	0.07379547119140625	0		-0.004249094009399414	5.95957763671875	0		
